<svg xmlns="http://www.w3.org/2000/svg" width="512" height="512" preserveAspectRatio="none" style="display:block" viewBox="0 0 2048 2048" id="a11a3a04-4040-4de1-964b-2b9b0785f636">
  <defs>
    <linearGradient id="Gradient1" x1="988.333" x2="1065.08" y1="1182.07" y2="550.252" gradientUnits="userSpaceOnUse">
      <stop class="stop0" offset="0" stop-color="#E65A50"></stop>
      <stop class="stop1" offset="1" stop-color="#FA9156"></stop>
    </linearGradient>
    <linearGradient id="Gradient2" x1="1180.48" x2="651.268" y1="982.335" y2="1799.84" gradientUnits="userSpaceOnUse">
      <stop class="stop0" offset="0" stop-color="#9682C5"></stop>
      <stop class="stop1" offset="1" stop-color="#239FF1"></stop>
    </linearGradient>
  </defs>
  <path fill="url(#Gradient2)" d="M 546.24 499.29 L 546.174 422.608 C 546.137 305.503 572.687 259.087 696.702 259.078 L 1325.91 259.064 C 1351.85 259.073 1383.75 257.786 1408.94 262.048 C 1496.3 276.835 1498.94 356.163 1498.88 424.056 L 1498.84 838.628 L 1498.84 1101.61 L 1498.91 1624.2 C 1498.93 1703.08 1490.4 1788.09 1383.21 1788.13 L 723.151 1787.82 C 571.548 1787.81 545.999 1758.6 546.234 1607.44 L 546.24 886.047 C 545.468 874.223 546.145 855.521 546.176 843.139 L 546.24 499.29 z M 1444.02 1050.58 L 1444.02 797.158 L 1444.08 426.617 C 1444.27 346.163 1440.09 315.631 1350.79 315.283 L 1306.31 315.285 C 1301.31 424.713 1215.01 417.533 1137.12 417.486 L 888.364 417.499 C 811.859 417.477 745.586 415.492 736.759 315.285 C 703.65 314.212 646.066 309.473 622.637 333.471 C 600.86 355.137 605.925 379.237 605.991 407.08 L 605.894 510.637 L 605.894 928.163 L 605.867 1606 C 605.864 1632.57 605.028 1660.58 607.362 1686.95 C 612.383 1743.69 695.371 1731.09 734.185 1731.05 L 1237.04 1731 C 1285.02 1731 1333.11 1730.78 1381.09 1731.4 C 1451.56 1732.31 1444.09 1662.24 1444.08 1615.76 L 1444.02 1199.35 C 1444.02 1150.8 1443.05 1098.89 1444.02 1050.58 z M 790.512 315.285 C 800.292 376.48 858.837 360.824 908.622 360.821 L 1160.23 360.772 C 1178.46 360.759 1213.98 362.698 1229.66 355.784 C 1247.16 344.558 1248.84 334.73 1251.48 315.285 L 806.028 315.285 L 790.512 315.285 z"></path>
  <path fill="url(#Gradient1)" d="M 994.009 549.096 C 1168.85 531.309 1324.99 658.659 1342.71 833.504 C 1360.44 1008.35 1233.03 1164.44 1058.18 1182.11 C 883.416 1199.76 727.418 1072.43 709.703 897.674 C 691.987 722.917 819.259 566.874 994.009 549.096 z M 1008.55 818.954 C 1015 825.471 1039.81 851.418 1046.33 854.918 C 1113.96 854.607 1134.15 853.695 1187.63 903.788 C 1213.79 928.285 1217.56 956.916 1224.97 989.73 C 1212.23 990.7 1192.28 991.853 1179.83 989.73 C 1184.92 995.948 1217.84 1026.67 1224.97 1033.64 C 1232.72 1022.16 1240.87 1010.72 1248.08 998.988 C 1356.25 823.067 1222.39 601.33 1019.54 603.955 C 965.855 604.649 894.888 627.148 857.593 665.795 C 869.471 675.488 882.522 690.984 893.164 702.276 L 946.65 758.084 C 937.56 719.333 965.113 675.604 1004.47 667.752 C 1125.28 643.643 1132.13 835.565 1008.55 818.954 z M 1183.07 1073 C 1164.87 1056.2 1113.53 998.891 1097.85 989.73 L 913.054 989.716 C 886.419 989.701 857.744 992.35 831.349 989.73 C 833.081 961.157 837.716 931.877 858.392 909.57 C 883.364 882.627 923.847 854.057 961.978 851.954 C 920.644 805.585 865.118 750.127 818.617 707.465 C 779.161 755.118 762.435 829.33 768.087 890.998 C 785.327 1079.11 991.691 1188.86 1155.41 1091.75 C 1164.94 1086.09 1173.74 1079.08 1183.07 1073 z"></path>
  <path fill="#8B8DCD" d="M961.978 851.954C981.637 868.195 1007.3 896.655 1026.15 915.585L1066.61 956.085C1077.35 966.826 1088.78 977.583 1097.85 989.73L913.054 989.716C886.419 989.701 857.744 992.35 831.349 989.73 833.081 961.157 837.716 931.877 858.392 909.57 883.364 882.627 923.847 854.057 961.978 851.954zM946.65 758.084C937.56 719.333 965.113 675.604 1004.47 667.752 1125.28 643.643 1132.13 835.565 1008.55 818.954 988.788 800.197 966.417 775.368 946.65 758.084zM1046.33 854.918C1113.96 854.607 1134.15 853.695 1187.63 903.788 1213.79 928.285 1217.56 956.916 1224.97 989.73 1212.23 990.7 1192.28 991.853 1179.83 989.73 1139.12 946.829 1082.42 898.869 1046.33 854.918z"></path>
  <path fill="#5895E5" d="M 1018.41 1221.4 C 1122.63 1218.4 1209.63 1300.27 1212.99 1404.48 C 1216.34 1508.68 1134.77 1595.97 1030.57 1599.67 C 925.878 1603.39 838.084 1521.34 834.717 1416.64 C 831.35 1311.93 913.692 1224.42 1018.41 1221.4 z M 1030.58 1542.52 C 1102.92 1538.94 1158.82 1477.63 1155.72 1405.27 C 1152.62 1332.9 1091.69 1276.59 1019.31 1279.21 C 946.229 1281.84 889.273 1343.48 892.4 1416.54 C 895.527 1489.6 957.542 1546.14 1030.58 1542.52 z"></path>
  <path fill="#5895E5" d="M952.82 1412.87 1044.01 1412.83C1069.6 1412.84 1146.46 1403.32 1114.89 1459.61 1111.36 1465.92 1099.27 1466.9 1092.5 1467.08L997.508 1467.16C982.297 1467.17 962.328 1468.02 947.789 1466.51 914.374 1463.04 913.455 1414.82 952.82 1412.87zM942.182 1348.99C953.399 1348.78 973.389 1347.45 983.253 1351.67 1004.59 1360.8 1001.37 1391.09 980.025 1399.08 969.637 1400.02 947.566 1401.23 938.578 1397.54 913.88 1387.39 920.227 1358.6 942.182 1348.99zM1079.06 1348.99C1150.61 1345.9 1126.48 1399.44 1092.5 1399.08 1025.36 1400.58 1045.14 1348.68 1079.06 1348.99zM955.905 1630.31C971.917 1629.37 1089.6 1628.95 1097.57 1632.32 1128.38 1645.33 1121.82 1682.25 1092.5 1691.73L1006.75 1691.79C991.335 1691.8 976.355 1691.9 960.954 1691.32 922.635 1689.89 917.845 1637.16 955.905 1630.31z"></path>
  <path fill="#DA9493" d="M 546.24 499.29 L 546.174 422.608 C 546.137 305.503 572.687 259.087 696.702 259.078 L 1325.91 259.064 C 1351.85 259.073 1383.75 257.786 1408.94 262.048 C 1496.3 276.835 1498.94 356.163 1498.88 424.056 L 1498.84 838.628 C 1489.96 828.025 1505.78 756.089 1490.38 728.873 C 1483.03 743.986 1489.78 711.024 1464.42 703.899 C 1461.13 706.105 1456.6 708.279 1453.01 710.14 L 1451.37 709.257 C 1448.93 704.97 1447.69 699.289 1446.63 694.416 L 1446.28 692.777 C 1440.79 715.959 1451.27 775.429 1445.49 798.305 L 1444.02 797.158 L 1444.08 426.617 C 1444.27 346.163 1440.09 315.631 1350.79 315.283 L 1306.31 315.285 C 1301.31 424.713 1215.01 417.533 1137.12 417.486 L 888.364 417.499 C 811.859 417.477 745.586 415.492 736.759 315.285 C 703.65 314.212 646.066 309.473 622.637 333.471 C 600.86 355.137 605.925 379.237 605.991 407.08 L 605.894 510.637 L 605.894 928.163 C 602.767 921.121 607.868 793.494 600.041 765.754 C 598.876 761.625 590.677 760.168 585.474 758.084 C 563.018 774.751 562.19 750.956 548.054 748.309 C 542.212 793.264 551.681 845.895 546.24 886.047 C 545.468 874.223 546.145 855.521 546.176 843.139 L 546.24 499.29 z M 790.512 315.285 C 800.292 376.48 858.837 360.824 908.622 360.821 L 1160.23 360.772 C 1178.46 360.759 1213.98 362.698 1229.66 355.784 C 1247.16 344.558 1248.84 334.73 1251.48 315.285 L 806.028 315.285 L 790.512 315.285 z"></path>
  <path fill="#8B8DCD" d="M 546.24 499.29 C 547.383 501.204 546.143 649.427 549.672 672.414 C 550.947 680.722 594.816 676.346 602.284 678.516 C 607.447 671.653 598.16 538.306 605.894 510.637 L 605.894 928.163 C 602.767 921.121 607.868 793.494 600.041 765.754 C 598.876 761.625 590.677 760.168 585.474 758.084 C 563.018 774.751 562.19 750.956 548.054 748.309 C 542.212 793.264 551.681 845.895 546.24 886.047 C 545.468 874.223 546.145 855.521 546.176 843.139 L 546.24 499.29 z"></path>
  <path fill="#B28DA8" d="M 1444.02 797.158 L 1445.49 798.305 C 1451.27 775.429 1440.79 715.959 1446.28 692.777 L 1446.63 694.416 C 1447.69 699.289 1448.93 704.97 1451.37 709.257 L 1453.01 710.14 C 1456.6 708.279 1461.13 706.105 1464.42 703.899 C 1489.78 711.024 1483.03 743.986 1490.38 728.873 C 1505.78 756.089 1489.96 828.025 1498.84 838.628 L 1498.84 1101.61 L 1497.96 1100.56 C 1497.56 1101.21 1501.44 1199.98 1497.01 1214.32 C 1494.64 1202.92 1497.99 1200.71 1493.43 1185.15 C 1479.28 1190.63 1449.08 1175.97 1447.41 1160.15 C 1445.75 1144.42 1443.1 1052.46 1446.17 1035.45 C 1446 1035.57 1444.45 1048.73 1444.02 1050.58 L 1444.02 797.158 z"></path>
</svg>
